# xmcd
#
# Track frame offsets: 
#        150
#        13727
#        30152
#        45227
#        59927
#        73615
#        89552
#        111527
#        128065
#        142090
#        157952
#        173102
#        187052
#        202765
#        217090
#        231152
#        245365
#        259577
#        273077
#        288452
#        310352
#
# Disc length: 4432 seconds
#
# Revision: 1
# Processed by: cddbd v1.5.2PL0 Copyright (c) Steve Scherf et al.
# Submitted via: ExactAudioCopyFreeDBPlugin 1.0
#
DISCID=38114e15
DTITLE=Ben Selvin - Ben Selvin Volume One - The Columbia House Bands
DYEAR=1994
DGENRE=Jazz
TTITLE0=Ben Selvin v. Dick Robertson - Last Dollar
TTITLE1=Ben Selvin v. Paul Small - I Wanna Sing About YOu
TTITLE2=Ben Selvin v. Helen Rowland - You're My Everything
TTITLE3=Ben Selvin v. Dick Robertson - You Can't Stop Me From Loving Y
TTITLE3=ou
TTITLE4=Ben Selvin v. Ethel Waters - Makin' Faces At The Man In The Mo
TTITLE4=on
TTITLE5=Lucille
TTITLE6=Ben Selvin v. Helen Rowland - Was That The Human Thing To Do
TTITLE7=Ben Selvin v. Kate Smith, Wallace Trio, Jack Miller - Hot-Cha 
TTITLE7=Medley - Bed Of Roses, Say, There I Go
TTITLE8=Ben Selvin v. Wallace Trio - You Try Somebody Else
TTITLE9=Ben Selvin v. Helen Rowland - When We're Alone
TTITLE10=Ben Selvin v. The Rollickers - Happy Days Are Here Again
TTITLE11=Ben Selvin v. Dick Robertson - When Yuba Plays The Rumba On T
TTITLE11=he Tuba
TTITLE12=Ben Selvin v. Dick Robertson - Between The Devil And The Deep
TTITLE12=Blue Sea
TTITLE13=Ben Selvin v. Wallace Trio - It's The Darndest Thing
TTITLE14=Ben Selvin v. Wallace Trio - Little Mary Brown
TTITLE15=Ben Selvin v. Dick Robertson - She Didn't Say 'Yes'
TTITLE16=Ben Selvin v. Female Duet - My Sweet Tooth Says 'I Wanna'
TTITLE17=Ben Selvin v. Dick Robertson - Take It From Me
TTITLE18=Ben Selvin v. Wallace Trio - Who Am I
TTITLE19=You Call It Madness
TTITLE20=When The Rest Of The Crowd Goes Home
EXTD=YEAR: 1935
EXTT0=
EXTT1=
EXTT2=
EXTT3=
EXTT4=
EXTT5=
EXTT6=
EXTT7=
EXTT8=
EXTT9=
EXTT10=
EXTT11=
EXTT12=
EXTT13=
EXTT14=
EXTT15=
EXTT16=
EXTT17=
EXTT18=
EXTT19=
EXTT20=
PLAYORDER=
